<?xml version="1.0" encoding="UTF-8" standalone="no"?>
<svg
   xmlns:dc="http://purl.org/dc/elements/1.1/"
   xmlns:cc="http://creativecommons.org/ns#"
   xmlns:rdf="http://www.w3.org/1999/02/22-rdf-syntax-ns#"
   xmlns:svg="http://www.w3.org/2000/svg"
   xmlns="http://www.w3.org/2000/svg"
   xmlns:sodipodi="http://sodipodi.sourceforge.net/DTD/sodipodi-0.dtd"
   xmlns:inkscape="http://www.inkscape.org/namespaces/inkscape"
   inkscape:version="1.0beta1 (32d4812, 2019-09-19)"
   height="64"
   width="64"
   sodipodi:docname="awesome_emoji2.svg"
   xml:space="preserve"
   viewBox="0 0 64 64"
   y="0px"
   x="0px"
   id="Layer_1"
   version="1.1"><metadata
   id="metadata1348">
  <rdf:RDF>
    <cc:Work
       rdf:about="">
      <dc:format>image/svg+xml</dc:format>
      <dc:type
         rdf:resource="http://purl.org/dc/dcmitype/StillImage" />
      <dc:title></dc:title>
    </cc:Work>
  </rdf:RDF>
</metadata>
<defs
   id="defs1346" />
<sodipodi:namedview
   inkscape:current-layer="Layer_1"
   inkscape:window-maximized="0"
   inkscape:window-y="23"
   inkscape:window-x="1801"
   inkscape:cy="560"
   inkscape:cx="400"
   inkscape:zoom="0.35"
   showgrid="false"
   id="namedview1344"
   inkscape:window-height="955"
   inkscape:window-width="1600"
   inkscape:pageshadow="2"
   inkscape:pageopacity="0"
   guidetolerance="10"
   gridtolerance="10"
   objecttolerance="10"
   borderopacity="1"
   inkscape:document-rotation="0"
   bordercolor="#666666"
   pagecolor="#ffffff" />

<style
   id="style1141"
   type="text/css">
	.st0{fill:none;}
	.st1{fill:url(#SVGID_1_);}
	.st2{fill:url(#SVGID_2_);}
	.st3{fill:none;stroke:url(#SVGID_3_);stroke-width:2;stroke-miterlimit:10;}
	.st4{fill:#381B01;}
	.st5{fill:#FFFFFF;}
	.st6{fill:#BC5C02;}
	.st7{opacity:0.26;fill:url(#SVGID_4_);}
	.st8{opacity:0.26;fill:url(#SVGID_5_);}
	.st9{opacity:0.15;fill:#FFFDE2;}
	.st10{fill:url(#SVGID_6_);}
	.st11{fill:url(#SVGID_7_);}
	.st12{fill:none;stroke:url(#SVGID_8_);stroke-width:2;stroke-miterlimit:10;}
	.st13{opacity:0.26;fill:url(#SVGID_9_);}
	.st14{opacity:0.26;fill:url(#SVGID_10_);}
</style>

<path
   inkscape:connector-curvature="0"
   id="path1143"
   d="M 790.33,91.13"
   class="st0" />

<linearGradient
   gradientTransform="matrix(0.29982197,0,0,0.29982197,-9.9930641,-45.390034)"
   y2="363.8508"
   x2="140.0648"
   y1="152.38519"
   x1="140.0648"
   gradientUnits="userSpaceOnUse"
   id="SVGID_1_">
	<stop
   id="stop1145"
   style="stop-color:#FFFDE2"
   offset="0.0123" />

	<stop
   id="stop1147"
   style="stop-color:#FFF995"
   offset="0.1305" />

	<stop
   id="stop1149"
   style="stop-color:#FFEB3C"
   offset="0.3079" />

	<stop
   id="stop1151"
   style="stop-color:#FFCB3A"
   offset="0.5207" />

	<stop
   id="stop1153"
   style="stop-color:#EFAB24"
   offset="0.6142" />

	<stop
   id="stop1155"
   style="stop-color:#E49414"
   offset="0.7043" />

	<stop
   id="stop1157"
   style="stop-color:#DD860A"
   offset="0.7888" />

	<stop
   id="stop1159"
   style="stop-color:#DB8107"
   offset="0.8621" />

</linearGradient>

<circle
   style="fill:url(#SVGID_1_);stroke-width:0.299822"
   id="circle1162"
   r="31.700178"
   cy="32"
   cx="32"
   class="st1" />

<linearGradient
   gradientTransform="matrix(0.29982197,0,0,0.29982197,-9.9930641,-45.390034)"
   y2="363.8508"
   x2="140.0648"
   y1="152.38519"
   x1="140.0648"
   gradientUnits="userSpaceOnUse"
   id="SVGID_2_">
	<stop
   id="stop1164"
   style="stop-color:#FFEA20"
   offset="5.128323e-04" />

	<stop
   id="stop1166"
   style="stop-color:#FFDB1E"
   offset="0.0926" />

	<stop
   id="stop1168"
   style="stop-color:#FEB01A"
   offset="0.3809" />

	<stop
   id="stop1170"
   style="stop-color:#EB9610"
   offset="0.5876" />

	<stop
   id="stop1172"
   style="stop-color:#DB8107"
   offset="0.7926" />

</linearGradient>

<path
   inkscape:connector-curvature="0"
   style="fill:url(#SVGID_2_);stroke-width:0.299822"
   id="path1175"
   d="m 32.000001,3.298056 c 15.827602,0 28.701957,12.87735 28.701957,28.70195 0,15.82461 -12.877353,28.70196 -28.701957,28.70196 -15.824604,0 -28.7019571,-12.87735 -28.7019571,-28.70196 0,-15.8246 12.8773531,-28.70195 28.7019571,-28.70195 m 0,-2.99822001 c -17.506605,0 -31.70017708,14.19357001 -31.70017708,31.70017001 0,17.50661 14.19357208,31.70018 31.70017708,31.70018 17.506605,0 31.703175,-14.19357 31.703175,-31.70018 0,-17.5066 -14.193572,-31.70017001 -31.703175,-31.70017001 z"
   class="st2" />

<linearGradient
   gradientTransform="matrix(0.29982197,0,0,0.29982197,-9.9930641,-45.390034)"
   y2="364.8508"
   x2="140.0648"
   y1="151.38519"
   x1="140.0648"
   gradientUnits="userSpaceOnUse"
   id="SVGID_3_">
	<stop
   id="stop1177"
   style="stop-color:#FEB01A"
   offset="0.0785" />

	<stop
   id="stop1179"
   style="stop-color:#C44713"
   offset="0.7923" />

</linearGradient>

<circle
   style="stroke:url(#SVGID_3_)"
   id="circle1182"
   r="31.700178"
   cy="32"
   cx="32"
   class="st3" />

<path
   style="stroke-width:0.299822"
   inkscape:connector-curvature="0"
   id="path1184"
   d="m 53.35632,42.071026 c -0.113932,-0.36278 -0.290827,-0.68359 -0.587651,-0.93244 -0.716575,-0.58765 -1.897873,-0.59965 -2.76136,-0.52169 0.269839,0.17689 0.530684,0.40476 0.602642,0.71657 0.30282,1.28924 -6.515132,2.71339 -7.573503,2.96224 -3.016209,0.70758 -6.092383,1.14532 -9.189544,1.30723 -6.847934,0.35079 -13.608919,-0.64162 -20.100065,-2.95625 l -1.36419,-0.48571 0.608639,1.31322 c 3.579874,7.68444 10.406821,12.88035 17.545582,14.09163 2.986227,0.5067 6.02942,0.31781 8.904712,-0.68059 3.232081,-1.11834 5.984447,-3.27406 8.086199,-5.94247 1.253256,-1.58606 2.143727,-3.39699 3.055186,-5.18393 0.578656,-1.13932 1.292232,-3.55888 2.893282,-2.44954 -0.06896,-0.051 -0.06296,-1.06137 -0.119929,-1.23827 z m -15.380867,8.48796 c 4.386395,0.48571 7.666448,-0.78853 9.61529,-1.74496 -1.822917,2.73138 -4.56329,5.5497 -8.541928,6.92889 -6.593085,2.28464 -14.106623,0.036 -19.599362,-5.24989 2.29064,0.60264 5.684625,1.40317 8.511946,0.82451 -4.080577,-0.43774 -8.664855,-2.04778 -10.190949,-2.61444 -1.139323,-1.33121 -2.158718,-2.81533 -3.025204,-4.43437 6.209314,2.0238 12.649489,2.87829 19.164621,2.54249 5.342827,-0.27284 10.586714,-1.3552 15.61173,-3.2081 -0.13492,1.3492 -1.424154,5.38181 -11.546144,6.95587 z"
   class="st4" />

<path
   style="stroke-width:0.299822"
   inkscape:connector-curvature="0"
   id="path1186"
   d="m 37.975453,50.558986 c 4.386395,0.48571 7.666448,-0.78853 9.61529,-1.74496 -1.822917,2.73138 -4.56329,5.5497 -8.541928,6.92889 -6.593085,2.28464 -14.106623,0.036 -19.599362,-5.24989 2.29064,0.60264 5.684625,1.40317 8.511946,0.82451 -4.080577,-0.43774 -8.664855,-2.04778 -10.190949,-2.61444 -1.139323,-1.33121 -2.158718,-2.81533 -3.025204,-4.43437 6.209314,2.0238 12.649489,2.87829 19.164621,2.54249 5.342827,-0.27284 10.586714,-1.3552 15.61173,-3.2081 -0.13492,1.3492 -1.424154,5.38181 -11.546144,6.95587 z"
   class="st5" />

<path
   style="stroke-width:0.299822"
   inkscape:connector-curvature="0"
   id="path1188"
   d="m 49.536588,37.939486 c 3.852712,-0.27884 6.215309,0.43474 6.63506,2.98922 -1.367188,-0.63862 -1.265248,-2.15572 -6.63506,-2.98922 z"
   class="st6" />

<path
   style="stroke-width:0.299822"
   inkscape:connector-curvature="0"
   id="path1190"
   d="m 56.591399,21.131466 c -1.337206,-1.44814 -3.612855,-1.73297 -5.468753,-1.8619 -2.413567,-0.1649 -4.845123,-0.021 -7.228707,0.39877 -1.795934,0.31481 -5.264874,0.85149 -6.70402,2.62344 -0.413754,0.5097 -0.659608,1.12133 -0.647615,1.86189 0.01799,1.11834 0.446735,2.53949 0.82451,3.57388 1.520098,4.17352 2.704394,6.37122 7.327649,7.49855 5.01902,0.53968 9.672257,-0.41675 11.054436,-2.82433 0.06296,-0.10793 0.119929,-0.21887 0.167901,-0.3328 1.80193,-4.45235 2.029794,-9.47137 0.674599,-10.9375 z"
   class="st4" />

<path
   style="stroke-width:0.299822"
   inkscape:connector-curvature="0"
   id="path1192"
   d="m 62.488897,18.858816 c -0.02099,-0.36579 -0.293825,-0.65961 -0.650613,-0.71958 -5.306849,-0.90846 -19.434461,-0.86648 -26.39033,1.63104 -1.376183,0.54267 -2.530498,0.70757 -3.648834,0.68359 -0.830507,0.018 -1.684999,-0.069 -2.632437,-0.3388 -0.323807,-0.0929 -0.662606,-0.20688 -1.013398,-0.34479 -4.188513,-1.50511 -10.982479,-2.11975 -16.879977,-2.17072 -3.8946871,-0.033 -7.3996061,0.1799 -9.5103531,0.53968 -0.356788,0.06 -0.629626,0.35379 -0.653612,0.71958 -0.04497,0.74056 0.07795,1.58905 0.239858,2.26365 0.152909,0.63862 0.57266,1.16331 1.133327,1.50211 1.268247,0.76754 1.052375,2.10775 1.523095,3.64883 0.006,0.024 0.01199,0.048 0.01799,0.072 0.947437,5.04001 2.164714,7.2407 3.55289,8.32306 0.03298,0.027 0.07196,0.054 0.110934,0.075 5.7625791,3.27706 11.3542581,2.67142 15.2279581,0.72557 0.03298,-0.015 0.06296,-0.036 0.09594,-0.054 0.953434,-0.62663 1.747962,-1.28024 2.42556,-1.97883 1.442144,-1.47213 2.380586,-3.15113 3.277054,-5.2169 0.317811,-0.73457 0.632624,-1.5201 0.95943,-2.3626 0.542678,-1.75396 1.490116,-1.93085 2.125738,-1.90387 0.635623,-0.027 1.58306,0.14991 2.128736,1.90387 1.685,4.32643 2.977232,7.13876 6.659046,9.55833 0.03298,0.018 0.06296,0.039 0.09594,0.054 3.876698,1.94585 9.468378,2.55149 15.227958,-0.72557 0.04197,-0.021 0.08095,-0.048 0.113932,-0.075 1.388176,-1.08236 2.602455,-3.28305 3.549893,-8.32306 0.006,-0.024 0.01499,-0.048 0.02099,-0.072 0.470721,-1.54108 0.254849,-2.88129 1.523096,-3.64883 0.560667,-0.3388 0.980418,-0.86349 1.133327,-1.50211 0.161904,-0.6746 0.284831,-1.52309 0.236859,-2.26365 z m -35.624846,6.75499 c -0.161904,0.74355 -0.40476,1.49911 -0.629627,2.11374 -0.716574,1.96683 -1.361191,3.49293 -2.32362,4.68022 -1.079359,1.32521 -2.563478,2.22168 -5.007027,2.81833 -5.243886,0.56366 -10.0920071,-0.5067 -11.2193381,-3.15713 -1.44814,-3.57388 -1.879884,-7.51653 -1.292233,-9.68725 0.143915,-0.53368 0.347794,-0.95943 0.614635,-1.25025 0.01799,-0.021 0.03598,-0.039 0.05397,-0.057 1.346201,-1.40017 3.5828731,-1.679 5.4177831,-1.80493 2.413567,-0.1649 4.845123,-0.021 7.22571,0.39877 2.317624,0.40476 7.408601,1.18129 7.354633,4.48533 -0.006,0.45273 -0.08095,0.95344 -0.194884,1.46014 z m 29.052749,6.45516 c -0.04797,0.11393 -0.104938,0.22487 -0.167901,0.3328 -1.382179,2.40758 -6.035416,3.36401 -11.054436,2.82433 -4.623255,-1.12733 -5.807551,-3.32503 -7.327649,-7.49855 -0.377775,-1.03439 -0.806521,-2.45554 -0.82451,-3.57388 -0.01199,-0.74056 0.233861,-1.35219 0.647615,-1.86189 1.439146,-1.77195 4.908086,-2.30863 6.70402,-2.62344 2.383584,-0.41976 4.81514,-0.56367 7.228707,-0.39877 1.855898,0.12893 4.131547,0.41376 5.468753,1.8619 1.355195,1.46613 1.127331,6.48515 -0.674599,10.9375 z"
   class="st4" />

<path
   style="stroke-width:0.299822"
   inkscape:connector-curvature="0"
   id="path1194"
   d="m 27.058935,24.153666 c -0.006,0.45273 -0.08095,0.95344 -0.194884,1.46014 -0.161904,0.74355 -0.40476,1.49911 -0.629627,2.11374 -1.523095,4.17352 -2.707392,6.37122 -7.330647,7.49855 -5.243886,0.56366 -10.0920071,-0.5067 -11.2193381,-3.15713 -1.44814,-3.57388 -1.879884,-7.51653 -1.292233,-9.68725 0.143915,-0.53368 0.347794,-0.95943 0.614635,-1.25025 1.340205,-1.44814 3.6128551,-1.73297 5.4717511,-1.8619 2.413567,-0.1649 4.845123,-0.021 7.22571,0.39877 2.317624,0.40476 7.408601,1.18129 7.354633,4.48533 z"
   class="st4" />

<linearGradient
   gradientTransform="matrix(0.29982197,0,0,0.29982197,-9.9930641,-45.390034)"
   y2="269.3642"
   x2="88.696404"
   y1="215.4344"
   x1="88.696404"
   gradientUnits="userSpaceOnUse"
   id="SVGID_4_">
	<stop
   id="stop1196"
   style="stop-color:#FFFDE2"
   offset="0.0123" />

	<stop
   id="stop1198"
   style="stop-color:#FFFBDD"
   offset="0.0717" />

	<stop
   id="stop1200"
   style="stop-color:#FFF5CE"
   offset="0.1435" />

	<stop
   id="stop1202"
   style="stop-color:#FFECB6"
   offset="0.2219" />

	<stop
   id="stop1204"
   style="stop-color:#FFDF93"
   offset="0.3048" />

	<stop
   id="stop1206"
   style="stop-color:#FECE67"
   offset="0.3914" />

	<stop
   id="stop1208"
   style="stop-color:#FEB932"
   offset="0.4797" />

	<stop
   id="stop1210"
   style="stop-color:#FEB01A"
   offset="0.5167" />

	<stop
   id="stop1212"
   style="stop-color:#C44713"
   offset="1" />

</linearGradient>

<path
   inkscape:connector-curvature="0"
   style="fill:url(#SVGID_4_);stroke-width:0.299822"
   id="path1215"
   d="m 27.058935,24.153666 c -0.006,0.45273 -0.08095,0.95344 -0.194884,1.46014 -0.161904,0.74355 -0.40476,1.49911 -0.629627,2.11374 -0.716574,1.96683 -1.361191,3.49293 -2.32362,4.68022 -1.079359,1.32521 -2.563478,2.22168 -5.007027,2.81833 -5.243886,0.56366 -10.0920071,-0.5067 -11.2193381,-3.15713 -1.44814,-3.57388 -1.879884,-7.51653 -1.292233,-9.68725 0.143915,-0.53368 0.347794,-0.95943 0.614635,-1.25025 0.01799,-0.021 0.03598,-0.039 0.05397,-0.057 1.346201,-1.40017 3.5828731,-1.679 5.4177831,-1.80493 2.413567,-0.1649 4.845123,-0.021 7.22571,0.39877 2.317624,0.40476 7.408601,1.18129 7.354633,4.48533 z"
   class="st7" />

<linearGradient
   gradientTransform="matrix(0.29982197,0,0,0.29982197,-9.9930641,-45.390034)"
   y2="269.36469"
   x2="190.101"
   y1="215.4344"
   x1="190.101"
   gradientUnits="userSpaceOnUse"
   id="SVGID_5_">
	<stop
   id="stop1217"
   style="stop-color:#FFFDE2"
   offset="0.0123" />

	<stop
   id="stop1219"
   style="stop-color:#FFFBDD"
   offset="0.0717" />

	<stop
   id="stop1221"
   style="stop-color:#FFF5CE"
   offset="0.1435" />

	<stop
   id="stop1223"
   style="stop-color:#FFECB6"
   offset="0.2219" />

	<stop
   id="stop1225"
   style="stop-color:#FFDF93"
   offset="0.3048" />

	<stop
   id="stop1227"
   style="stop-color:#FECE67"
   offset="0.3914" />

	<stop
   id="stop1229"
   style="stop-color:#FEB932"
   offset="0.4797" />

	<stop
   id="stop1231"
   style="stop-color:#FEB01A"
   offset="0.5167" />

	<stop
   id="stop1233"
   style="stop-color:#C44713"
   offset="1" />

</linearGradient>

<path
   inkscape:connector-curvature="0"
   style="fill:url(#SVGID_5_);stroke-width:0.299822"
   id="path1236"
   d="m 55.9168,32.068966 c -0.04797,0.11393 -0.104938,0.22487 -0.167901,0.3328 -1.382179,2.40758 -6.035416,3.36401 -11.054436,2.82433 -4.623255,-1.12733 -5.807551,-3.32503 -7.327649,-7.49855 -0.377775,-1.03439 -0.806521,-2.45554 -0.82451,-3.57388 -0.01199,-0.74056 0.233861,-1.35219 0.647615,-1.86189 1.439146,-1.77195 4.908086,-2.30863 6.70402,-2.62344 2.383584,-0.41976 4.81514,-0.56367 7.228707,-0.39877 1.855898,0.12893 4.131547,0.41376 5.468753,1.8619 1.355195,1.46613 1.127331,6.48515 -0.674599,10.9375 z"
   class="st8" />

<path
   style="stroke-width:0.299822"
   inkscape:connector-curvature="0"
   id="path1238"
   d="m 26.234424,27.727546 c -0.716574,1.96683 -1.361191,3.49293 -2.32362,4.68022 L 7.0608089,21.074496 c 1.346201,-1.40017 3.5828731,-1.679 5.4177831,-1.80493 2.413567,-0.1649 4.845123,-0.021 7.22571,0.39877 2.317624,0.40476 7.408601,1.18129 7.354633,4.48533 -0.006,0.45273 -0.08095,0.95344 -0.194884,1.46014 -0.161904,0.74355 -0.40476,1.49911 -0.629627,2.11374 z"
   class="st9" />

<path
   style="stroke-width:0.299822"
   inkscape:connector-curvature="0"
   id="path1240"
   d="m 55.9168,32.068966 c -0.04797,0.11393 -0.104938,0.22487 -0.167901,0.3328 l -18.55898,-10.10999 c 1.439146,-1.77195 4.908086,-2.30863 6.70402,-2.62344 2.383584,-0.41976 4.81514,-0.56367 7.228707,-0.39877 1.855898,0.12893 4.131547,0.41376 5.468753,1.8619 1.355195,1.46613 1.127331,6.48515 -0.674599,10.9375 z"
   class="st9" />

<path
   style="stroke-width:0.299822"
   inkscape:connector-curvature="0"
   id="path1242"
   d="m 26.450296,14.988106 c 0.164902,0.048 0.509698,0.045 0.79153,-0.1559 0.638621,-0.45573 0.620632,-1.83192 0.26984,-2.5305 -1.058372,-2.10775 -6.650051,-1.1843 -9.249508,-0.75555 -3.95765,0.65061 -5.795558,1.83491 -6.958868,2.92926 -0.410756,0.38677 -0.716574,0.74056 -0.920453,0.99541 7.312658,-2.15872 10.211936,-1.5171 11.720041,-1.3492 1.61604,0.17989 3.070177,0.49471 4.347418,0.86648 z"
   class="st4" />

<path
   style="stroke-width:0.299822"
   inkscape:connector-curvature="0"
   id="path1244"
   d="m 36.473345,12.019876 c -0.146913,0.039 -0.479715,0.018 -0.785534,-0.1769 -0.719573,-0.46172 -0.90846,-1.81392 -0.596646,-2.50951 0.902465,-2.0208 7.05781,-0.97442 9.660264,-0.53368 3.717793,0.62963 5.585684,1.61004 6.919891,3.04619 0.389769,0.41975 0.668603,0.80952 0.851495,1.08835 -7.252694,-2.3536 -10.169961,-1.79293 -11.678066,-1.66401 -1.622037,0.13492 -3.085168,0.41376 -4.371404,0.74956 z"
   class="st4" />

<linearGradient
   y2="363.8508"
   x2="413.31619"
   y1="152.38519"
   x1="413.31619"
   gradientUnits="userSpaceOnUse"
   id="SVGID_6_">
	<stop
   id="stop1246"
   style="stop-color:#FFFDE2"
   offset="0.0123" />

	<stop
   id="stop1248"
   style="stop-color:#FFF995"
   offset="0.1305" />

	<stop
   id="stop1250"
   style="stop-color:#FFEB3C"
   offset="0.3079" />

	<stop
   id="stop1252"
   style="stop-color:#FFCB3A"
   offset="0.5207" />

	<stop
   id="stop1254"
   style="stop-color:#EFAB24"
   offset="0.6142" />

	<stop
   id="stop1256"
   style="stop-color:#E49414"
   offset="0.7043" />

	<stop
   id="stop1258"
   style="stop-color:#DD860A"
   offset="0.7888" />

	<stop
   id="stop1260"
   style="stop-color:#DB8107"
   offset="0.8621" />

</linearGradient>


<linearGradient
   y2="363.8508"
   x2="413.31619"
   y1="152.38519"
   x1="413.31619"
   gradientUnits="userSpaceOnUse"
   id="SVGID_7_">
	<stop
   id="stop1265"
   style="stop-color:#FFEA20"
   offset="5.128323e-04" />

	<stop
   id="stop1267"
   style="stop-color:#FFDB1E"
   offset="0.0926" />

	<stop
   id="stop1269"
   style="stop-color:#FEB01A"
   offset="0.3809" />

	<stop
   id="stop1271"
   style="stop-color:#EB9610"
   offset="0.5876" />

	<stop
   id="stop1273"
   style="stop-color:#DB8107"
   offset="0.7926" />

</linearGradient>


<linearGradient
   y2="364.8508"
   x2="413.31619"
   y1="151.38519"
   x1="413.31619"
   gradientUnits="userSpaceOnUse"
   id="SVGID_8_">
	<stop
   id="stop1278"
   style="stop-color:#FEB01A"
   offset="0.0785" />

	<stop
   id="stop1280"
   style="stop-color:#C44713"
   offset="0.7923" />

</linearGradient>








<linearGradient
   y2="269.3642"
   x2="361.94781"
   y1="215.4344"
   x1="361.94781"
   gradientUnits="userSpaceOnUse"
   id="SVGID_9_">
	<stop
   id="stop1297"
   style="stop-color:#FFFDE2"
   offset="0.0123" />

	<stop
   id="stop1299"
   style="stop-color:#FFFBDD"
   offset="0.0717" />

	<stop
   id="stop1301"
   style="stop-color:#FFF5CE"
   offset="0.1435" />

	<stop
   id="stop1303"
   style="stop-color:#FFECB6"
   offset="0.2219" />

	<stop
   id="stop1305"
   style="stop-color:#FFDF93"
   offset="0.3048" />

	<stop
   id="stop1307"
   style="stop-color:#FECE67"
   offset="0.3914" />

	<stop
   id="stop1309"
   style="stop-color:#FEB932"
   offset="0.4797" />

	<stop
   id="stop1311"
   style="stop-color:#FEB01A"
   offset="0.5167" />

	<stop
   id="stop1313"
   style="stop-color:#C44713"
   offset="1" />

</linearGradient>


<linearGradient
   y2="269.36469"
   x2="463.35239"
   y1="215.4344"
   x1="463.35239"
   gradientUnits="userSpaceOnUse"
   id="SVGID_10_">
	<stop
   id="stop1318"
   style="stop-color:#FFFDE2"
   offset="0.0123" />

	<stop
   id="stop1320"
   style="stop-color:#FFFBDD"
   offset="0.0717" />

	<stop
   id="stop1322"
   style="stop-color:#FFF5CE"
   offset="0.1435" />

	<stop
   id="stop1324"
   style="stop-color:#FFECB6"
   offset="0.2219" />

	<stop
   id="stop1326"
   style="stop-color:#FFDF93"
   offset="0.3048" />

	<stop
   id="stop1328"
   style="stop-color:#FECE67"
   offset="0.3914" />

	<stop
   id="stop1330"
   style="stop-color:#FEB932"
   offset="0.4797" />

	<stop
   id="stop1332"
   style="stop-color:#FEB01A"
   offset="0.5167" />

	<stop
   id="stop1334"
   style="stop-color:#C44713"
   offset="1" />

</linearGradient>




</svg>
