<?xml version="1.0" encoding="UTF-8" standalone="no"?>
<svg
   xmlns:dc="http://purl.org/dc/elements/1.1/"
   xmlns:cc="http://creativecommons.org/ns#"
   xmlns:rdf="http://www.w3.org/1999/02/22-rdf-syntax-ns#"
   xmlns:svg="http://www.w3.org/2000/svg"
   xmlns="http://www.w3.org/2000/svg"
   xmlns:sodipodi="http://sodipodi.sourceforge.net/DTD/sodipodi-0.dtd"
   xmlns:inkscape="http://www.inkscape.org/namespaces/inkscape"
   enable-background="new 0 0 128 128"
   viewBox="0 0 64 64"
   version="1.1"
   id="svg5091"
   sodipodi:docname="favicon.svg"
   width="64"
   height="64"
   inkscape:version="0.92.3 (2405546, 2018-03-11)">
  <metadata
     id="metadata5097">
    <rdf:RDF>
      <cc:Work
         rdf:about="">
        <dc:format>image/svg+xml</dc:format>
        <dc:type
           rdf:resource="http://purl.org/dc/dcmitype/StillImage" />
        <dc:title></dc:title>
      </cc:Work>
    </rdf:RDF>
  </metadata>
  <defs
     id="defs5095" />
  <sodipodi:namedview
     pagecolor="#ffffff"
     bordercolor="#666666"
     borderopacity="1"
     objecttolerance="10"
     gridtolerance="10"
     guidetolerance="10"
     inkscape:pageopacity="0"
     inkscape:pageshadow="2"
     inkscape:window-width="1369"
     inkscape:window-height="826"
     id="namedview5093"
     showgrid="false"
     inkscape:zoom="1.84375"
     inkscape:cx="64"
     inkscape:cy="64"
     inkscape:window-x="67"
     inkscape:window-y="0"
     inkscape:window-maximized="0"
     inkscape:current-layer="svg5091" />
  <symbol
     viewBox="-64.5 -64.5 129 129"
     id="symbol5064"
     transform="translate(0,-64)">
    <g
       stroke-miterlimit="10"
       id="g5062"
       style="fill:none;stroke:#4285f4;stroke-miterlimit:10">
      <rect
         x="-64"
         y="-64"
         width="128"
         height="128"
         id="rect5046" />
      <path
         d="M 36.95,37.82 C 27.32,46.32 14.2,51 0,51 -14.27,51 -27.39,46.38 -36.96,37.99 -47.45,28.79 -53,15.65 -53,0 c 0,-15.58 5.55,-28.69 16.04,-37.92 C -27.36,-46.35 -14.24,-51 0,-51 c 14.17,0 27.29,4.71 36.95,13.25 C 47.45,-28.45 53,-15.4 53,0 53,15.47 47.45,28.55 36.95,37.82 Z"
         id="path5048"
         inkscape:connector-curvature="0" />
      <path
         d="M 0,55 C -29.59,55 -57,35.99 -57,0 -57,-35.8 -29.59,-55 0,-55 29.59,-55 57,-35.31 57,0 57,35.51 29.59,55 0,55 Z"
         id="path5050"
         inkscape:connector-curvature="0" />
      <path
         d="m 0,-43 c -12.29,0 -23.54,3.94 -31.68,11.09 C -40.39,-24.25 -45,-13.21 -45,0 -45,29.7 -22.4,43 0,43 21.67,43 45,29.54 45,0 45,-29.54 21.67,-43 0,-43 Z"
         id="path5052"
         inkscape:connector-curvature="0" />
      <line
         x1="-0.0099999998"
         x2="-0.0099999998"
         y1="51"
         y2="-51"
         id="line5054" />
      <line
         x1="-16"
         x2="-16"
         y1="48.950001"
         y2="-48.93"
         id="line5056" />
      <line
         x1="15.99"
         x2="15.99"
         y1="48.91"
         y2="-48.93"
         id="line5058" />
      <line
         x1="53"
         x2="-53"
         y1="0.079999998"
         y2="0.079999998"
         id="line5060" />
    </g>
  </symbol>
  <linearGradient
     id="a"
     x1="63.992001"
     x2="63.992001"
     y1="20.702"
     y2="106.73"
     gradientUnits="userSpaceOnUse"
     gradientTransform="matrix(0.53328889,0,0,0.53329214,-2.1331556,-2.141696)">
    <stop
       stop-color="#FEE133"
       offset=".5"
       id="stop5066" />
    <stop
       stop-color="#FEDE32"
       offset=".6118"
       id="stop5068" />
    <stop
       stop-color="#FCD32F"
       offset=".7076"
       id="stop5070" />
    <stop
       stop-color="#FAC12B"
       offset=".7975"
       id="stop5072" />
    <stop
       stop-color="#F7A924"
       offset=".8834"
       id="stop5074" />
    <stop
       stop-color="#F6A323"
       offset=".9"
       id="stop5076" />
  </linearGradient>
  <path
     d="m 31.992001,61.13341 c -14.56412,0 -30.2428134,-9.11929 -30.2428134,-29.14441 0,-20.02512 15.6786934,-29.144416 30.2428134,-29.144416 8.073994,0 15.545371,2.671795 21.043579,7.524753 6.020832,5.31159 9.199234,12.788345 9.199234,21.619663 0,8.79399 -3.178402,16.25474 -9.199234,21.58234 -5.508874,4.87429 -12.985584,7.56207 -21.043579,7.56207 z"
     id="path5079"
     style="fill:url(#a);stroke-width:0.53329051"
     inkscape:connector-curvature="0" />
  <path
     d="m 31.992001,3.911169 c 7.812682,0 15.033414,2.575801 20.339638,7.258106 5.780852,5.103606 8.836597,12.30305 8.836597,20.819725 0,8.47935 -3.055745,15.66279 -8.84193,20.78239 -5.31689,4.70364 -12.537622,7.29544 -20.339638,7.29544 -7.834014,0 -15.060079,-2.5598 -20.344971,-7.19945 C 5.8715107,47.78511 2.8157654,40.56434 2.8157654,31.989 c 0,-8.618 3.0557453,-15.849443 8.8312636,-20.915717 5.268895,-4.618311 12.494959,-7.162114 20.344972,-7.162114 m 0,-2.133169 c -16.254646,0 -31.3093912,10.441861 -31.3093912,30.211 0,19.66249 15.0547452,30.211 31.3093912,30.211 16.254645,0 31.309391,-10.81517 31.309391,-30.211 0,-19.502494 -15.054746,-30.211 -31.309391,-30.211 z"
     id="path5081"
     inkscape:connector-curvature="0"
     style="fill:#eb8f00;stroke-width:0.53329051" />
  <path
     d="m 63.994667,22.080433 c 0,0 -2.271811,0.048 -2.271811,1.866522 0,4.490319 0.048,14.126905 -11.711024,14.126905 -9.417881,0 -13.913507,-4.863621 -14.670777,-10.233872 -0.314641,-2.234495 -1.087909,-4.67164 -3.343721,-4.67164 -2.255812,0 -3.034414,2.437145 -3.343722,4.67164 C 27.896342,33.210239 23.400717,38.07386 13.982835,38.07386 2.2238147,38.07386 2.2718107,28.437274 2.2718107,23.946955 2.2718107,22.128429 0,22.080433 0,22.080433 v -4.447657 c 0,0 4.3623031,-0.671949 11.017749,-0.671949 6.655445,0 9.305891,0 14.601449,0.52796 3.125073,0.314643 6.378136,0.351973 6.378136,0.351973 0,0 3.253062,-0.032 6.383468,-0.34664 5.295558,-0.527959 7.946004,-0.527959 14.601449,-0.527959 C 59.637697,16.966161 64,17.638109 64,17.638109 v 4.442324 z"
     id="path5083"
     inkscape:connector-curvature="0"
     style="stroke-width:0.53329051" />
  <path
     d="m 9.129906,25.56283 c -0.05333,0.853267 -0.394634,1.64254 -1.231898,1.797195 -0.09599,0.016 -0.191984,0.02666 -0.287976,0.02666 -0.725272,0 -1.375885,-0.517293 -1.51454,-1.25857 -0.2986417,-1.58921 0.048,-3.077095 0.970586,-4.191675 0.863928,-1.045254 2.143821,-1.64254 3.509041,-1.64254 0.853262,0 1.605199,0.527959 1.605199,1.375893 0,1.002589 -0.799933,1.423891 -1.605199,1.706536 -0.751938,0.271978 -1.381218,1.151911 -1.445213,2.186497 z"
     id="path5085"
     inkscape:connector-curvature="0"
     style="fill:#858585;stroke-width:0.53329051" />
  <path
     d="m 43.036414,25.56283 c -0.05333,0.853267 -0.394634,1.64254 -1.231898,1.797195 -0.09599,0.016 -0.191984,0.02666 -0.287976,0.02666 -0.725273,0 -1.375885,-0.517293 -1.51454,-1.25857 -0.298642,-1.58921 0.048,-3.077095 0.970586,-4.191675 0.863928,-1.045254 2.143821,-1.64254 3.509041,-1.64254 0.853262,0 1.605199,0.527959 1.605199,1.375893 0,1.002589 -0.799933,1.423891 -1.605199,1.706536 -0.746605,0.271978 -1.381219,1.151911 -1.445213,2.186497 z"
     id="path5087"
     inkscape:connector-curvature="0"
     style="fill:#858585;stroke-width:0.53329051" />
  <path
     d="m 31.997334,47.88644 c -6.138156,0 -10.52179,-3.18376 -11.839014,-5.19427 -0.506624,-0.77327 -0.607949,-1.61587 -0.266644,-2.25049 0.255978,-0.47996 0.725273,-0.75194 1.290559,-0.75194 0.186651,0 0.383968,0.032 0.581285,0.096 3.093075,0.97059 6.639446,1.48255 10.260478,1.48255 3.594367,0 7.130072,-0.51196 10.217815,-1.48255 0.197317,-0.064 0.394634,-0.096 0.581285,-0.096 0.559953,0 1.029248,0.27198 1.285226,0.75194 0.341305,0.63462 0.23998,1.47189 -0.266644,2.25049 -1.322557,2.00518 -5.706191,5.19427 -11.844346,5.19427 z"
     id="path5089"
     inkscape:connector-curvature="0"
     style="fill:#242424;stroke-width:0.53329051" />
</svg>
